<?xml version="1.0" encoding="UTF-8"?>
<svg xmlns="http://www.w3.org/2000/svg" id="Layer_1" data-name="Layer 1" viewBox="0 0 24 24" width="512" height="512"><path d="M23.02,8.79c-.59-.54-1.36-.81-2.17-.78-.8,.04-1.54,.39-2.09,.98l-3.22,3.53c-.55-.91-1.55-1.52-2.69-1.52h-3.86v-1h.38c1.45,0,2.62-1.18,2.62-2.62,0-1.29-.92-2.38-2.19-2.59l-3.29-.55c-.3-.05-.52-.31-.52-.62,0-.34,.28-.62,.62-.62h2.38c.55,0,1,.45,1,1h2c0-1.65-1.35-3-3-3V0h-2V1h-.38c-1.45,0-2.62,1.18-2.62,2.62,0,1.29,.92,2.38,2.19,2.59l3.29,.55c.3,.05,.52,.31,.52,.62,0,.34-.28,.62-.62,.62h-2.38c-.55,0-1-.45-1-1h-2c0,1.65,1.35,3,3,3v1H3c-1.65,0-3,1.35-3,3v7c0,1.65,1.35,3,3,3H13.45l9.79-10.99c1.09-1.23,.99-3.12-.22-4.23Zm-1.27,2.9l-9.19,10.32H3c-.55,0-1-.45-1-1v-7c0-.55,.45-1,1-1H12.86c.63,0,1.14,.51,1.14,1.14,0,.56-.42,1.05-.98,1.13l-5.16,.74,.28,1.98,5.16-.74c1.18-.17,2.13-.99,2.51-2.06l4.43-4.86c.18-.2,.43-.32,.7-.33,.27,0,.53,.08,.73,.26,.41,.37,.44,1.01,.07,1.42Z"/></svg>
